<svg width="24" height="24" viewBox="0 0 24 24" fill="none" xmlns="http://www.w3.org/2000/svg">
<g clip-path="url(#clip0_13_494)">
<g filter="url(#filter0_d_13_494)">
<path d="M21.7099 20.2894L17.9999 16.6094C19.44 14.8138 20.1374 12.5347 19.9487 10.2407C19.76 7.94672 18.6996 5.8122 16.9854 4.27606C15.2713 2.73992 13.0337 1.91893 10.7328 1.98189C8.43194 2.04485 6.24263 2.98698 4.61505 4.61456C2.98747 6.24214 2.04534 8.43145 1.98237 10.7323C1.91941 13.0332 2.74041 15.2708 4.27655 16.9849C5.81269 18.6991 7.94721 19.7595 10.2412 19.9482C12.5352 20.1369 14.8143 19.4395 16.6099 17.9994L20.2899 21.6794C20.3829 21.7731 20.4935 21.8475 20.6153 21.8983C20.7372 21.9491 20.8679 21.9752 20.9999 21.9752C21.1319 21.9752 21.2626 21.9491 21.3845 21.8983C21.5063 21.8475 21.6169 21.7731 21.7099 21.6794C21.8901 21.493 21.9909 21.2438 21.9909 20.9844C21.9909 20.7251 21.8901 20.4759 21.7099 20.2894V20.2894ZM10.9999 17.9994C9.61544 17.9994 8.26206 17.5889 7.11091 16.8197C5.95977 16.0505 5.06256 14.9573 4.53275 13.6782C4.00293 12.3991 3.86431 10.9917 4.13441 9.63378C4.4045 8.27592 5.07119 7.02864 6.05016 6.04967C7.02912 5.0707 8.27641 4.40402 9.63427 4.13392C10.9921 3.86382 12.3996 4.00245 13.6787 4.53226C14.9578 5.06207 16.051 5.95928 16.8202 7.11042C17.5894 8.26157 17.9999 9.61495 17.9999 10.9994C17.9999 12.8559 17.2624 14.6364 15.9497 15.9492C14.6369 17.2619 12.8564 17.9994 10.9999 17.9994V17.9994Z" fill="url(#paint0_linear_13_494)"/>
<path d="M17.6099 16.2966L17.3284 16.6476L17.6478 16.9644L21.3534 20.6401C21.4416 20.733 21.4909 20.8562 21.4909 20.9844C21.4909 21.113 21.4413 21.2366 21.3526 21.3296C21.3066 21.3754 21.2521 21.4118 21.1922 21.4368C21.1313 21.4621 21.0659 21.4752 20.9999 21.4752C20.9339 21.4752 20.8685 21.4621 20.8076 21.4368C20.7467 21.4114 20.6914 21.3742 20.6449 21.3273L20.6435 21.3259L16.9635 17.6459L16.6466 17.329L16.2971 17.6094C14.6012 18.9695 12.4487 19.6281 10.2822 19.4499C8.11564 19.2717 6.0997 18.2702 4.64891 16.6512C3.19811 15.0323 2.42273 12.9191 2.48219 10.746C2.54165 8.57296 3.43144 6.50527 4.9686 4.96811C6.50576 3.43095 8.57345 2.54116 10.7465 2.4817C12.9196 2.42224 15.0328 3.19762 16.6517 4.64842C18.2707 6.09922 19.2722 8.11515 19.4504 10.2817C19.6286 12.4483 18.9699 14.6008 17.6099 16.2966ZM6.83313 17.2354C8.0665 18.0595 9.51654 18.4994 10.9999 18.4994C12.989 18.4994 14.8967 17.7092 16.3032 16.3027C17.7097 14.8962 18.4999 12.9885 18.4999 10.9994C18.4999 9.51606 18.06 8.06601 17.2359 6.83264C16.4118 5.59927 15.2405 4.63798 13.87 4.07032C12.4996 3.50266 10.9916 3.35414 9.53673 3.64353C8.08187 3.93292 6.7455 4.64722 5.6966 5.69612C4.64771 6.74501 3.9334 8.08138 3.64401 9.53624C3.35463 10.9911 3.50315 12.4991 4.07081 13.8695C4.63846 15.24 5.59976 16.4113 6.83313 17.2354Z" stroke="black"/>
</g>
</g>
<defs>
<filter id="filter0_d_13_494" x="-2.021" y="1.97852" width="28.0119" height="27.9961" filterUnits="userSpaceOnUse" color-interpolation-filters="sRGB">
<feFlood flood-opacity="0" result="BackgroundImageFix"/>
<feColorMatrix in="SourceAlpha" type="matrix" values="0 0 0 0 0 0 0 0 0 0 0 0 0 0 0 0 0 0 127 0" result="hardAlpha"/>
<feOffset dy="4"/>
<feGaussianBlur stdDeviation="2"/>
<feComposite in2="hardAlpha" operator="out"/>
<feColorMatrix type="matrix" values="0 0 0 0 0 0 0 0 0 0 0 0 0 0 0 0 0 0 0.25 0"/>
<feBlend mode="normal" in2="BackgroundImageFix" result="effect1_dropShadow_13_494"/>
<feBlend mode="normal" in="SourceGraphic" in2="effect1_dropShadow_13_494" result="shape"/>
</filter>
<linearGradient id="paint0_linear_13_494" x1="1.979" y1="1.97852" x2="25.4288" y2="16.3755" gradientUnits="userSpaceOnUse">
<stop stop-color="#F3F9FF"/>
<stop offset="1" stop-color="#F1F0FF"/>
</linearGradient>
<clipPath id="clip0_13_494">
<rect width="24" height="24" fill="white"/>
</clipPath>
</defs>
</svg>
